<svg xmlns="http://www.w3.org/2000/svg" width="77" height="75" viewBox="0 0 77 75">
    <g fill="none" fill-rule="evenodd">
        <path fill="#FFF" d="M17.174 26.963c-6.207-2.204-12.071-4.285-12.071-10.146 0-3.41 1.471-9.131 11.326-9.131 5.365 0 9.54 2.034 12.074 5.88.273.416.708.645 1.226.645.765 0 1.365-.605 1.365-1.377 0-.296-.044-.523-.275-.87-3.444-4.804-8.011-7.03-14.39-7.03-8.885 0-14.19 4.443-14.19 11.883 0 7.822 7.067 10.334 13.9 12.763 6.707 2.385 13.04 4.637 13.04 11.546 0 7.097-4.597 10.848-13.293 10.848-7.72 0-11.502-4.438-13.072-7.082-.21-.355-.562-.952-1.382-.952A1.44 1.44 0 0 0 0 45.384c0 .37.115.732.34 1.075 2.4 3.766 7.053 8.267 15.546 8.267 10.419 0 16.157-4.83 16.157-13.6 0-8.887-7.9-11.69-14.869-14.163"/>
        <path fill="#C3F4FF" d="M44.276 67.62h.936v5.331h-.936v1.773h3.608V72.95h-.924V67.62h.924v-1.773h-3.608v1.773zm21.92 3.191l-4.83-4.964h-.55v8.877h1.748v-5.18l4.919 5.18h.462v-8.877h-1.748v4.964zm-12.158 2.241c-1.51 0-2.734-1.24-2.734-2.773 0-1.532 1.223-2.773 2.734-2.773s2.735 1.24 2.735 2.773c0 1.532-1.224 2.773-2.735 2.773zm0-7.37c-2.497 0-4.532 2.065-4.532 4.597 0 2.533 2.035 4.597 4.532 4.597s4.532-2.064 4.532-4.597c0-2.532-2.035-4.597-4.532-4.597zm19.736 3.635a3.465 3.465 0 0 0-.25-.077c-.799-.202-1.111-.455-1.124-.91-.012-.292.075-.431.15-.508.225-.24.662-.329.774-.329.762 0 1.124.241 1.686.608l.312.202.911-1.506-.287-.19c-.637-.418-1.348-.886-2.622-.886-.45 0-1.386.19-2.035.873-.45.481-.674 1.102-.637 1.811.038.849.425 1.532 1.124 2 .5.342 1.036.482 1.323.558l.063.013.038.012c.911.317 1.448.76 1.448 1.241 0 .228-.237.9-.962.9-.386 0-1.423 0-2.347-1.001l-1.273 1.215a4.833 4.833 0 0 0 2.085 1.343c.624.19 1.149.215 1.535.215.787 0 1.499-.33 2.01-.912.437-.494.7-1.14.7-1.76 0-.633-.238-1.228-.687-1.734-.45-.495-1.099-.887-1.935-1.178zm-60.905 3.735c-1.51 0-2.735-1.24-2.735-2.773 0-1.532 1.224-2.773 2.735-2.773 1.51 0 2.734 1.24 2.734 2.773 0 1.532-1.224 2.773-2.734 2.773zm0-7.37c-2.497 0-4.532 2.065-4.532 4.597 0 2.533 2.035 4.597 4.532 4.597s4.532-2.064 4.532-4.597c0-2.532-2.035-4.597-4.532-4.597zm8.525.165h-1.748v8.864h5.007v-1.76h-3.259v-7.104zm14.093 1.773h2.435v7.104h1.748V67.62h2.422v-1.773h-6.605v1.773zm-1.884-1.773h-1.748v5.61h.013a1.694 1.694 0 0 1-.487 1.164 1.582 1.582 0 0 1-1.148.482c-.438 0-.85-.165-1.161-.482a1.669 1.669 0 0 1-.488-1.177v-5.597h-1.748v5.61c.013 1.886 1.524 3.419 3.397 3.419 1.86 0 3.383-1.533 3.383-3.432h-.013v-5.597zm-29.885 3.47a3.359 3.359 0 0 0-.249-.077c-.8-.202-1.112-.455-1.124-.91-.012-.292.075-.431.15-.508.225-.24.662-.329.774-.329.761 0 1.124.241 1.685.608l.313.202.911-1.506-.287-.19c-.637-.418-1.348-.886-2.622-.886-.45 0-1.385.19-2.035.873-.45.481-.674 1.102-.637 1.811.038.849.425 1.532 1.124 2 .5.342 1.036.482 1.323.558l.063.013.037.012c.912.317 1.449.76 1.449 1.241 0 .228-.238.9-.962.9-.387 0-1.423 0-2.347-1.001L.01 73.343a4.833 4.833 0 0 0 2.086 1.343c.624.19 1.148.215 1.535.215.787 0 1.498-.33 2.01-.912.437-.494.7-1.14.7-1.76 0-.633-.238-1.228-.687-1.734-.45-.495-1.099-.887-1.936-1.178z"/>
        <path fill="#FFF" d="M73.188 23.89H70.6c-.532-2.297-1.446-4.44-2.664-6.43l1.827-1.837c1.37-1.377 1.37-3.673 0-5.127l-2.74-2.756c-1.37-1.377-3.654-1.377-5.099 0l-1.827 1.837A22.26 22.26 0 0 0 53.704 6.9V4.297A3.583 3.583 0 0 0 50.127.7h-3.882a3.583 3.583 0 0 0-3.577 3.597V6.9l-.01.002v2.589c.504-.14 1.012-.268 1.532-.373l.99-.229V4.22c0-.612.458-1.07 1.065-1.07h3.882c.609 0 1.066.458 1.066 1.07v4.67l.99.228a20.986 20.986 0 0 1 7.381 3.062l.838.613L63.674 9.5c.38-.383 1.065-.383 1.522 0l2.74 2.755c.381.383.381 1.072 0 1.531l-3.272 3.291.608.842a20.426 20.426 0 0 1 3.045 7.423l.228.995h4.643c.609 0 1.065.459 1.065 1.072v3.903c0 .613-.456 1.071-1.065 1.071h-4.643l-.228.996a21.246 21.246 0 0 1-3.045 7.423l-.608.842 3.272 3.29c.381.384.381 1.071 0 1.531l-2.74 2.757c-.38.381-1.065.381-1.522 0l-3.272-3.293-.838.613a20.201 20.201 0 0 1-7.382 3.061l-.989.23v4.668c0 .612-.457 1.071-1.066 1.071h-3.882a1.043 1.043 0 0 1-1.064-1.07v-4.67l-.99-.229a19.864 19.864 0 0 1-1.532-.377v2.747l.01.002v2.603a3.582 3.582 0 0 0 3.576 3.597h3.882a3.582 3.582 0 0 0 3.577-3.597v-2.603c2.283-.535 4.414-1.453 6.393-2.678l1.827 1.838c1.37 1.377 3.653 1.377 5.098 0l2.74-2.756c1.37-1.377 1.37-3.673 0-5.128l-1.826-1.836a22.528 22.528 0 0 0 2.664-6.43h2.588a3.582 3.582 0 0 0 3.576-3.597v-3.902a3.583 3.583 0 0 0-3.576-3.598z"/>
        <path fill="#C3F4FF" d="M61.584 29.423c0 6.048-4.748 10.951-10.607 10.951h-7.954V18.471c.574-.022 1.477-.03 2.484-.03 2.013 0 4.44.03 5.47.03 5.859 0 10.607 4.904 10.607 10.952zm-15.866-8.266V37.66h5.26c4.362 0 7.91-3.695 7.91-8.236s-3.548-8.237-7.91-8.237c-.435 0-1.115-.005-1.908-.01-1.024-.008-2.24-.018-3.352-.019z"/>
    </g>
</svg>
